<svg class="svg-icon icon-tools-rails" xmlns="http://www.w3.org/2000/svg" viewBox="0 0 500 500" enable-background="new 0 0 500 500"><path fill="#80152A" d="M422.1 418.6c0 27.2-22 49.2-49.2 49.2h-293.3v-386.4c0-27.2 22-49.2 49.2-49.2h293.2v386.4h.1z"/><linearGradient id="a" gradientUnits="userSpaceOnUse" x1="87.5" y1="250" x2="414.2" y2="250" gradientTransform="matrix(1 0 0 -1 0 500)"><stop offset=".08" stop-color="#AA2237"/><stop offset=".982" stop-color="#B4313D"/></linearGradient><path fill="url(#a)" d="M414.2 413.9c0 26.2-19.6 45.8-45.8 45.8h-280.9v-373.6c0-26.2 19.6-45.8 45.8-45.8h280.8v373.6h.1z"/><path fill="#8A2034" d="M159 40.6l1.1 95.2-70.8 23.7z"/><linearGradient id="b" gradientUnits="userSpaceOnUse" x1="159" y1="411.8" x2="253.5" y2="411.8" gradientTransform="matrix(1 0 0 -1 0 500)"><stop offset=".037" stop-color="#B83A41"/><stop offset=".896" stop-color="#BF4A50"/></linearGradient><path fill="url(#b)" d="M159 40.6l1.1 95.2 93.4-38.9z"/><path fill="#AE2338" d="M120.4 229.8l39.7-94-70.8 23.7z"/><linearGradient id="c" gradientUnits="userSpaceOnUse" x1="124.1" y1="174.8" x2="124.1" y2="270.2" gradientTransform="matrix(1 0 0 -1 0 500)"><stop offset=".037" stop-color="#A92237"/><stop offset=".939" stop-color="#972235"/></linearGradient><path fill="url(#c)" d="M120.4 229.8l39.2 95.4-71-22.9z"/><path fill="#8A2034" d="M159.2 459.1l.4-133.9-71-22.9z"/><path fill="#8C2033" d="M159.2 459.1h-70.6v-156.8z"/><linearGradient id="d" gradientUnits="userSpaceOnUse" x1="206.2" y1="40.9" x2="206.2" y2="174.8" gradientTransform="matrix(1 0 0 -1 0 500)"><stop offset=".037" stop-color="#BC4245"/><stop offset=".939" stop-color="#A42136"/></linearGradient><path fill="url(#d)" d="M159.2 459.1l.4-133.9 93.7 38.6z"/><linearGradient id="e" gradientUnits="userSpaceOnUse" x1="300.8" y1="363.6" x2="300.8" y2="458.8" gradientTransform="matrix(1 0 0 -1 0 500)"><stop offset=".037" stop-color="#CC5057"/><stop offset=".896" stop-color="#B73840"/></linearGradient><path fill="url(#e)" d="M347.1 41.2l1 95.2-94.6-39.5z"/><linearGradient id="f" gradientUnits="userSpaceOnUse" x1="340.7" y1="376.5" x2="381.2" y2="399.9" gradientTransform="matrix(1 0 0 -1 0 500)"><stop offset=".08" stop-color="#D4575F"/><stop offset=".945" stop-color="#B63540"/></linearGradient><path fill="url(#f)" d="M347.1 41.2l1 95.2 65.8 23.4z"/><linearGradient id="g" gradientUnits="userSpaceOnUse" x1="348.1" y1="316.4" x2="413.9" y2="316.4" gradientTransform="matrix(1 0 0 -1 0 500)"><stop offset="0" stop-color="#C04B51"/><stop offset="1" stop-color="#B83A41"/></linearGradient><path fill="url(#g)" d="M386.7 230.9l-38.6-94.5 65.8 23.4z"/><linearGradient id="h" gradientUnits="userSpaceOnUse" x1="347.9" y1="222.2" x2="413.8" y2="222.2" gradientTransform="matrix(1 0 0 -1 0 500)"><stop offset="0" stop-color="#BA4044"/><stop offset="1" stop-color="#B4303C"/></linearGradient><path fill="url(#h)" d="M386.7 230.9l-38.8 93.9 65.9-23.5z"/><linearGradient id="i" gradientUnits="userSpaceOnUse" x1="334" y1="137.1" x2="384.7" y2="118.7" gradientTransform="matrix(1 0 0 -1 0 500)"><stop offset="0" stop-color="#972136"/><stop offset="1" stop-color="#9F2236"/></linearGradient><path fill="url(#i)" d="M348.7 458.9l-.8-134.1 65.9-23.5z"/><linearGradient id="j" gradientUnits="userSpaceOnUse" x1="290.7" y1="167.5" x2="376.9" y2="64.8" gradientTransform="matrix(1 0 0 -1 0 500)"><stop offset=".037" stop-color="#B22C3A"/><stop offset=".939" stop-color="#C04D53"/></linearGradient><path fill="url(#j)" d="M348.7 458.9l-.8-134.1-94.5 39z"/><linearGradient id="k" gradientUnits="userSpaceOnUse" x1="253.9" y1="40.9" x2="253.9" y2="136.2" gradientTransform="matrix(1 0 0 -1 0 500)"><stop offset=".037" stop-color="#B22C3A"/><stop offset=".939" stop-color="#9B2135"/></linearGradient><path fill="url(#k)" d="M348.7 458.9l-189.5.2 94.2-95.3z"/><path fill="#F7DEE1" d="M263.1 259l21.3 9.8-2.2-15.2-19.4-10.5.3 15.9zm-161.7 50.8l27.7 3.2 6.1-25.8-26.6-4.7-7.2 27.3zm98.7-178.5l-18.1-13.5-12.6 17.2 19.9 12.4 10.8-16.1zm55.7-45.2l-11.6-15.2-16.4 9.7 13.6 14.8 14.4-9.3zm59.9-10.7l-3.7-12.4-19.7-1.6 5.7 13.6 17.7.4zm66.7 15.6l-16.6-11.8v7.7l16 9.9.6-5.8zm-223.9 110.3l-22.7-9.9-7.7 22.5 23.3 8.7 7.1-21.3zm113-10.2l-4 13.9 14.6 13.4 3.6-12.9-14.2-14.4zm93.2-62.2l12.1.6.1-5.6-12.6-2.6.4 7.6zm-50.5-47c-58.4-2.8-162.8 52.5-177.8 274.3h143.1c-32.1-83.1-28.4-145.8-6.3-188.3 32.1-61.8 79.8-65.9 124.4-39.8 1.6-3.7 3.7-8.5 3.7-8.5-25.4-24.4-49.2-35.8-87.1-37.7zm4.3 46.1l5.3 12.7 9.9-5.3-3.6-11.7-11.6 4.3zm-32.4 28.9l10.8 14.9 6.7-9.8-9.5-14.7-8 9.6zm16.6 173.4l-6.7-16.3-24.8-4.6 6.5 18.7 25 2.2z"/><g fill="#fff"><path d="M172.6 130.7l17.1-7.2-7.7-5.7zM241.4 95.4l4.5-3-16-9.5z"/></g><g fill="#D7C4C9"><path d="M108.7 282.5l-6.4 24.3 15.2 4.9 11.7 1.3 6-25.8zM144.5 288.6c-1.7 9.7-3.2 19.8-4.5 30.4l19.6 6.3-15.1-36.7z"/></g><g fill="#C2C3C6"><path d="M102.3 306.8l-.9 3 16.1 1.9zM159.6 325.2l-19.6-6.3c-1.5 11.9-2.7 24.3-3.5 37.3h23.1v-31z"/></g><path fill="#DDC3C8" d="M159.5 356.3h75.5l-75.4-31.1z"/><linearGradient id="l" gradientUnits="userSpaceOnUse" x1="347.6" y1="395.6" x2="395.3" y2="395.6" gradientTransform="matrix(1 0 0 -1 0 500)"><stop offset=".037" stop-color="#fff"/><stop offset=".742" stop-color="#F4E6D9"/></linearGradient><path fill="url(#l)" d="M370.3 82.4l-4.5-3.2v7.7l10.7 6.6-6.2-11.1zm12 21.2c-10.8-7.6-22-13-34.7-16.6l.3 26c15.6 0 31.7 5 47.5 13.8l-13.1-23.2zm-17.6 25.3l12.1.6.1-5.6-12.6-2.6.4 7.6z"/><linearGradient id="m" gradientUnits="userSpaceOnUse" x1="268.9" y1="428.1" x2="346" y2="383.6" gradientTransform="matrix(1 0 0 -1 0 500)"><stop offset=".037" stop-color="#fff"/><stop offset=".896" stop-color="#F4E6D9"/></linearGradient><path fill="url(#m)" d="M347.6 87c-10-2.8-20.9-4.5-33.4-5.1-17.1-.8-38.3 3.4-59.9 15.3l59.4 24.8c10.9-6.2 22.4-9.1 34.2-9l-.3-26zm-31.9-11.6l-3.7-12.4-1.4-.1-14.2 8.5 1.6 3.6 17.7.4zm7.8 50.7l8.4 3.5-1.8-5.9-6.6 2.4z"/><path fill="#fff" d="M160.9 406.2v-10.6c0-5.6-5.6-15.7-15.9-15.7h-33.4v63.3h17.1v-18.4l13.8 18.4h20.5l-16-21.3c-.1 0 13.9-2.8 13.9-15.7zm-16.8 3.2h-15.5v-12.8h15.5v12.8zm66.4-29.7h-15.5c-7.8 0-15.9 7.1-15.9 16.4v46.8h16.8v-12.3h15.1v12.3h17.1v-46.9c0-9.2-8.3-16.3-17.6-16.3zm.5 33.9h-15.1v-17h15.1v17zm156.5-11.1h-16.5v-6.9h28.9v-15.7h-29s-17.2 8.1-17.2 16.2v6.7c0 9.8 8.8 16.6 17 16.6h15.3v7.7h-31.2v16h30.8c9.2 0 17.5-6.9 17.5-15.3v-8.4c0-10.2-8.1-16.9-15.6-16.9zm-68.9-22.7h-17v63.3h42.3v-17h-25.4v-46.3h.1zm-52.3 63.3h17v-63.3h-17v63.3z"/></svg>